<svg xmlns="http://www.w3.org/2000/svg" width="102.916" height="69.333" viewBox="0 0 102.916 69.333">
	<g stroke="#000" stroke-width="1.5" stroke-miterlimit="10">
		<path fill="#70C3F2" d="M4.582 58.619S2.275 39.542 13.86 24.385c4.666-6.106 11.514-10.796 18.911-12.75 11.665-3.08 23.575-1.911 32.84 6.27 2.501 2.208 5.064 4.719 7.087 7.38a60.111 60.111 0 0 1 2.605 3.697c.343.529 2.148 4.347 2.613 4.373l14.728.826s3.379 5.336 4.087 25.13l-17.604 4.542-19.939-1.384s-47.487 2.284-54.606-3.85z" />
		<path fill="none" d="M28.735 12.993c2.382.697 5.398 4.109 6.979 4.403 0 0 16.145-1.441 23.735-.947 0 0 1.715-.556 2.351-1.362M14.963 22.936s6.571 2.295 8.867 3.482c0 0 8.396-.536 17.37 1.233 0 0 1.874-.155 3.856 0 1.982.155 12.787.499 17.355 0 0 0 6.759-1.426 8.68-4.328M35.713 17.396s-2.498 3.7-4.228 9.072M53.457 16.243s3.041 7.973 3.395 11.785" />
		<path fill="none" d="M41.563 27.627s-.34 9.983.694 14.093c0 0 15.706.444 18.466-.38s4.347-1.839 5.234-2.174c0 0-.157-6.857-3.093-11.516M23.83 26.418s-2.723 8.001-3.352 13.102M7.848 36.669s12.27 4.46 33.991 5.033" />
		<path fill="none" d="M4.945 46.693s3.034 1.975 6.45 2.209c0 0 5.277 1.662 14.749 1.538 0 0 2.357.178 6.704.027 4.347-.151 11.743 0 13.516-.281 0 0 1.742.793 4.239.476s10.654.404 11.808-.141c0 0 1.653-4.654-.086-9.84M12.56 38.133s-.544 7.941-1.166 10.769M27.533 40.551s.348 6.556-.568 9.548M47.056 41.902l-.143 8.478M18.142 50.18s-.525 8.023-.506 12.008M36.319 50.439l-.206 12.57M59.34 50.81s.241 8.333-.152 11.659M63.081 45.744s4.109-11.463 14.836-12.388" />
		<path fill="#FFD2A0" d="M85.157 62.318s-.59-19.862 1.951-21.237c2.542-1.375 4.615-.857 5.082 2.552.467 3.41.709 16.501.709 16.501" />
		<path fill="none" d="M92.644 34.182s-9.268.473-11.159 7.72-2.357 21.951-2.357 21.951M70.397 63.226s-2.935-25.707 9.898-29.87M67.536 38.291s4.289.035 6.13.876M62.865 48.902s5.304.775 7.612.591M76.337 35.696s8.161-.194 8.997.735M70.109 51.353l9.711.195" />
		<path fill="#CF9E82" d="M85.767 44.231s2.875 1.427 2.963 17.243l-3.633.387s-.264-13.86.67-17.63z" />
	</g>
</svg>