<svg xmlns="http://www.w3.org/2000/svg" width="313.333" height="350.333" viewBox="0 0 313.333 350.333"><path fill="#A0A0A0" stroke="#000" stroke-width="5" stroke-miterlimit="10" d="M108.196 296.922s-5.123 21.385 8.112 28.637 31.898 17.02 31.898 17.02 7.109 7.475 28.503 1.556 66.124-18.259 66.124-18.259v-2.901L108.012 296.46l.184.462z"/><path fill="#BFBFBF" stroke="#000" stroke-width="5" stroke-miterlimit="10" d="M107.46 296.46s-1.961 18.886 5.472 23.781c7.433 4.895 34.221 19.588 34.221 19.588s9.405 7.256 26.991 2.905c17.587-4.351 70.879-18.129 70.879-18.129s6.068-2.719-3.179-5.076c-9.247-2.357-54.165-13.779-54.165-13.779s-13.846-2.9-14.846-12.328v-8.521L107.46 296.46z"/><path fill="#BFBFBF" stroke="#000" stroke-width="4.781" stroke-miterlimit="10" d="M20.187 302.704l-6.705-10.188s-2.172-2.901-2.535-11.966S3.332 17.534 3.332 17.534 2.97 3.393 25.089 3.03s-4.902 299.674-4.902 299.674z"/><path fill="#E0E0E0" stroke="#000" stroke-width="4.781" stroke-miterlimit="10" d="M13.486 16.568l4.351 273.048s-3.626 22.482 20.306 18.856c23.932-3.626 261.924-44.238 261.924-44.238s8.34.483 8.582-9.67c.242-10.153 1.692-210.074 1.692-210.074s.967-9.186-10.274-11.603S25.089 3.03 25.089 3.03 13.252.862 13.486 16.568z"/><path fill="#FFF" stroke="#000" stroke-width="2.869" stroke-miterlimit="10" d="M33.641 27.859L35.7 240.532l262.807-21.987 1.45-167.655z"/><path fill="none" stroke="#000" stroke-width="4.781" stroke-miterlimit="10" d="M17.427 262.053l291.492-31.909"/><ellipse transform="rotate(12.192 176.724 264.188)" fill="#BFBFBF" cx="176.75" cy="264.233" rx="7.887" ry="9.428"/></svg>